<svg xmlns="http://www.w3.org/2000/svg" viewBox="0 0 58.98 100"><defs><style>.cls-1{fill:#eb0000;}</style></defs><title>redMapFlag</title><g id="Layer_2" data-name="Layer 2"><g id="Layer_1-2" data-name="Layer 1"><path class="cls-1" d="M58,24.7C49.7,28.5,41.4,19,33.1,13.2a53.43,53.43,0,0,0-23-11,.6.6,0,0,0-.4-.1V1.2C9.7.6,7.8,0,5.5,0,3.4,0,1.7.4,1.4,1c0,.1-.1.1-.1.2v.9c-.8.2-1.3.5-1.3.8V3L1.3,43.9v1.3a3.58,3.58,0,0,0,1.1.4L3,99.9a17,17,0,0,0,2.3.1,17,17,0,0,0,2.3-.1l.9-54.3a6.89,6.89,0,0,0,.8-.3.35.35,0,0,0,.2-.1c8.3-5.7,15.3-7.5,23.6-8.1,8.3-1.4,16.6.7,24.9-10.4C59.3,25.1,59.3,24.1,58,24.7Z"/></g></g></svg>